<svg xmlns="http://www.w3.org/2000/svg" version="1.1" xmlns:xlink="http://www.w3.org/1999/xlink" xmlns:svgjs="http://svgjs.dev/svgjs" width="1500" height="939" viewBox="0 0 1500 939"><g transform="matrix(1,0,0,1,-0.9090909090909918,-1.5145161290323017)"><svg viewBox="0 0 396 248" data-background-color="#000000" preserveAspectRatio="xMidYMid meet" height="939" width="1500" xmlns="http://www.w3.org/2000/svg" xmlns:xlink="http://www.w3.org/1999/xlink"><g id="tight-bounds" transform="matrix(1,0,0,1,0.2400000000000091,0.4000000000000057)"><svg viewBox="0 0 395.52 247.2" height="247.2" width="395.52"><rect width="395.52" height="247.2" fill="url(#90dd3877-1cf2-47d3-be0a-da90972b81e5)" mask="url(#d99c4c14-9211-4373-9afd-a0b1aba149f1)" data-fill-palette-color="tertiary"></rect><g><svg></svg></g><g><svg viewBox="0 0 395.52 247.2" height="247.2" width="395.52"><g transform="matrix(1,0,0,1,75.54432,86.7908330212766)"><svg viewBox="0 0 244.43135999999998 73.61833395744681" height="73.61833395744681" width="244.43135999999998"><g><svg viewBox="0 0 244.43135999999998 73.61833395744681" height="73.61833395744681" width="244.43135999999998"><g><svg viewBox="0 0 244.43135999999998 73.61833395744681" height="73.61833395744681" width="244.43135999999998"><g><svg viewBox="0 0 244.43135999999998 73.61833395744681" height="73.61833395744681" width="244.43135999999998"><g id="textblocktransform"><svg viewBox="0 0 244.43135999999998 73.61833395744681" height="73.61833395744681" width="244.43135999999998" id="textblock"><g><svg viewBox="0 0 244.43135999999998 73.61833395744681" height="73.61833395744681" width="244.43135999999998"><g transform="matrix(1,0,0,1,0,0)"><svg width="244.43135999999998" viewBox="2.65 -31.25 105.74 31.85" height="73.61833395744681" data-palette-color="url(#a477607a-6be4-4c28-af33-7927a2702f46)"></svg></g></svg></g></svg></g></svg></g></svg></g></svg></g></svg></g><path d="M187.178 80.791L187.178 24.524 385.329 24.524 385.329 222.676 187.178 222.676 187.178 166.409 193.817 166.409 193.817 216.037 378.69 216.037 378.69 31.163 193.817 31.163 193.817 80.791Z" fill="url(#90dd3877-1cf2-47d3-be0a-da90972b81e5)" stroke="transparent" data-fill-palette-color="tertiary"></path></svg></g><defs></defs><mask id="f7e43312-8e0e-4667-836e-128439a0c3d5"><g id="SvgjsG3636"><svg viewBox="0 0 395.52 247.2" height="247.2" width="395.52"><g><svg></svg></g><g><svg viewBox="0 0 395.52 247.2" height="247.2" width="395.52"><g transform="matrix(1,0,0,1,75.54432,86.7908330212766)"><svg viewBox="0 0 244.43135999999998 73.61833395744681" height="73.61833395744681" width="244.43135999999998"><g><svg viewBox="0 0 244.43135999999998 73.61833395744681" height="73.61833395744681" width="244.43135999999998"><g><svg viewBox="0 0 244.43135999999998 73.61833395744681" height="73.61833395744681" width="244.43135999999998"><g><svg viewBox="0 0 244.43135999999998 73.61833395744681" height="73.61833395744681" width="244.43135999999998"><g id="SvgjsG3635"><svg viewBox="0 0 244.43135999999998 73.61833395744681" height="73.61833395744681" width="244.43135999999998" id="SvgjsSvg3634"><g><svg viewBox="0 0 244.43135999999998 73.61833395744681" height="73.61833395744681" width="244.43135999999998"><g transform="matrix(1,0,0,1,0,0)"><svg width="244.43135999999998" viewBox="2.65 -31.25 105.74 31.85" height="73.61833395744681" data-palette-color="url(#a477607a-6be4-4c28-af33-7927a2702f46)"><path d="M10.15 0.6L10.15 0.6Q7.95 0.6 6.28 0.1 4.6-0.4 3.63-1.98 2.65-3.55 2.65-6.75L2.65-6.75 2.65-23.4Q2.65-26.2 3.63-27.6 4.6-29 6.33-29.48 8.05-29.95 10.2-29.95L10.2-29.95Q12.4-29.95 14.05-29.45 15.7-28.95 16.65-27.55 17.6-26.15 17.6-23.4L17.6-23.4 17.6-18.2 14.45-18.2 14.45-23.45Q14.45-25.4 13.9-26.38 13.35-27.35 12.38-27.65 11.4-27.95 10.15-27.95L10.15-27.95Q8.9-27.95 7.93-27.65 6.95-27.35 6.43-26.38 5.9-25.4 5.9-23.45L5.9-23.45 5.9-5.9Q5.9-3.9 6.43-2.93 6.95-1.95 7.93-1.65 8.9-1.35 10.15-1.35L10.15-1.35Q11.45-1.35 12.4-1.65 13.35-1.95 13.9-2.93 14.45-3.9 14.45-5.9L14.45-5.9 14.45-10.35 17.6-10.35 17.6-6.8Q17.6-3.55 16.65-1.98 15.7-0.4 14.05 0.1 12.4 0.6 10.15 0.6ZM25.65 0L22.6 0 22.6-24.75 25.65-24.75 25.65 0ZM24.15-27.8L24.15-27.8Q23.4-27.8 22.87-28.33 22.35-28.85 22.35-29.55L22.35-29.55Q22.35-30.3 22.87-30.78 23.4-31.25 24.15-31.25L24.15-31.25Q24.85-31.25 25.4-30.78 25.95-30.3 25.95-29.55L25.95-29.55Q25.95-28.85 25.4-28.33 24.85-27.8 24.15-27.8ZM34.05 0L30.95 0 30.95-24.75 33.49-24.75 33.89-22.1Q34.3-23.6 35.74-24.4 37.2-25.2 38.74-25.2L38.74-25.2Q41.39-25.2 42.62-24.28 43.84-23.35 44.2-21.88 44.55-20.4 44.55-18.65L44.55-18.65 44.55 0 41.45 0 41.45-18.2Q41.45-19.1 41.39-19.95 41.34-20.8 41.02-21.48 40.7-22.15 39.95-22.55 39.2-22.95 37.74-22.95L37.74-22.95Q36.49-22.95 35.72-22.48 34.95-22 34.57-21.38 34.2-20.75 34.05-20.2L34.05-20.2 34.05 0ZM55.84 0.45L55.84 0.45Q53.34 0.45 51.79-0.13 50.24-0.7 49.54-2.25 48.84-3.8 48.84-6.75L48.84-6.75 48.84-19.1Q48.84-22.6 50.42-23.9 51.99-25.2 55.64-25.2L55.64-25.2Q59.19-25.2 60.77-23.9 62.34-22.6 62.34-19.1L62.34-19.1 62.34-12.7 51.94-12.7 51.94-5.7Q51.94-3.3 52.69-2.38 53.44-1.45 55.74-1.45L55.74-1.45Q57.84-1.45 58.54-2.35 59.24-3.25 59.24-5.7L59.24-5.7 59.24-8.9 62.34-8.9 62.34-6.8Q62.34-3.9 61.64-2.33 60.94-0.75 59.52-0.15 58.09 0.45 55.84 0.45ZM51.94-19.2L51.94-14.3 59.24-14.3 59.24-19.2Q59.24-21.3 58.54-22.25 57.84-23.2 55.64-23.2L55.64-23.2Q53.44-23.2 52.69-22.25 51.94-21.3 51.94-19.2L51.94-19.2ZM69.89 0L66.79 0 66.79-24.75 69.39-24.75 69.74-22Q70.29-23.45 71.57-24.3 72.84-25.15 74.69-25.15L74.69-25.15Q77.59-25.15 78.77-23.95 79.94-22.75 79.99-20.45L79.99-20.45 79.44-20.4Q79.94-22.55 81.37-23.85 82.79-25.15 85.04-25.15L85.04-25.15Q88.14-25.15 89.27-23.7 90.39-22.25 90.39-19.25L90.39-19.25 90.39 0 87.29 0 87.29-18.7Q87.29-21.1 86.57-21.98 85.84-22.85 84.09-22.85L84.09-22.85Q82.44-22.85 81.34-21.88 80.24-20.9 80.14-19.45L80.14-19.45 80.14 0 77.04 0 77.04-19.1Q77.04-21.15 76.32-22 75.59-22.85 73.74-22.85L73.74-22.85Q72.04-22.85 71.17-22.05 70.29-21.25 69.89-20.15L69.89-20.15 69.89 0ZM99.79 0.35L99.79 0.35Q98.64 0.35 97.46 0.03 96.29-0.3 95.46-1.48 94.64-2.65 94.64-5.15L94.64-5.15 94.64-7.55Q94.64-10.05 96.16-11.58 97.69-13.1 100.34-14.3L100.34-14.3Q102.04-15.15 103.11-15.8 104.19-16.45 104.74-17.25 105.29-18.05 105.29-19.4L105.29-19.4 105.29-20.45Q105.29-21.65 104.79-22.3 104.29-22.95 103.46-23.2 102.64-23.45 101.74-23.45L101.74-23.45Q99.49-23.45 98.79-22.23 98.09-21 98.09-18.6L98.09-18.6 98.09-16.5 95.24-16.5 95.24-18.9Q95.24-20.75 95.74-22.18 96.24-23.6 97.64-24.43 99.04-25.25 101.74-25.25L101.74-25.25Q104.59-25.25 106.01-24.6 107.44-23.95 107.91-22.75 108.39-21.55 108.39-19.9L108.39-19.9 108.39 0 105.34 0 105.29-3.1Q104.69-1.4 103.14-0.53 101.59 0.35 99.79 0.35ZM100.94-1.75L100.94-1.75Q103.19-1.75 104.21-3.35 105.24-4.95 105.24-7.6L105.24-7.6 105.24-15.5Q104.74-14.7 103.59-14.05 102.44-13.4 101.24-12.75L101.24-12.75Q99.54-11.75 98.61-10.68 97.69-9.6 97.69-7.7L97.69-7.7 97.69-5.75Q97.69-3.95 98.19-3.1 98.69-2.25 99.44-2 100.19-1.75 100.94-1.75Z" opacity="1" transform="matrix(1,0,0,1,0,0)" fill="white" class="wordmark-text-0" id="SvgjsPath3633"></path></svg></g></svg></g></svg></g></svg></g></svg></g></svg></g></svg></g><path d="M187.178 80.791L187.178 24.524 385.329 24.524 385.329 222.676 187.178 222.676 187.178 166.409 193.817 166.409 193.817 216.037 378.69 216.037 378.69 31.163 193.817 31.163 193.817 80.791Z" fill="black" stroke="transparent"></path></svg></g><defs><mask></mask></defs></svg><rect width="395.52" height="247.2" fill="black" stroke="none" visibility="hidden"></rect></g></mask><linearGradient x1="0" x2="1" y1="0.5" y2="0.5" id="a477607a-6be4-4c28-af33-7927a2702f46"><stop stop-color="#f00b51" offset="0"></stop><stop stop-color="#730062" offset="1"></stop></linearGradient><rect width="395.52" height="247.2" fill="url(#a477607a-6be4-4c28-af33-7927a2702f46)" mask="url(#f7e43312-8e0e-4667-836e-128439a0c3d5)" data-fill-palette-color="primary"></rect><mask id="d99c4c14-9211-4373-9afd-a0b1aba149f1"><g id="SvgjsG3659"><svg viewBox="0 0 395.52 247.2" height="247.2" width="395.52"><g><svg></svg></g><g><svg viewBox="0 0 395.52 247.2" height="247.2" width="395.52"><g transform="matrix(1,0,0,1,75.54432,86.7908330212766)"><svg viewBox="0 0 244.43135999999998 73.61833395744681" height="73.61833395744681" width="244.43135999999998"><g><svg viewBox="0 0 244.43135999999998 73.61833395744681" height="73.61833395744681" width="244.43135999999998"><g><svg viewBox="0 0 244.43135999999998 73.61833395744681" height="73.61833395744681" width="244.43135999999998"><g><svg viewBox="0 0 244.43135999999998 73.61833395744681" height="73.61833395744681" width="244.43135999999998"><g id="SvgjsG3658"><svg viewBox="0 0 244.43135999999998 73.61833395744681" height="73.61833395744681" width="244.43135999999998" id="SvgjsSvg3657"><g><svg viewBox="0 0 244.43135999999998 73.61833395744681" height="73.61833395744681" width="244.43135999999998"><g transform="matrix(1,0,0,1,0,0)"><svg width="244.43135999999998" viewBox="2.65 -31.25 105.74 31.85" height="73.61833395744681" data-palette-color="url(#a477607a-6be4-4c28-af33-7927a2702f46)"></svg></g></svg></g></svg></g></svg></g></svg></g></svg></g></svg></g><path d="M187.178 80.791L187.178 24.524 385.329 24.524 385.329 222.676 187.178 222.676 187.178 166.409 193.817 166.409 193.817 216.037 378.69 216.037 378.69 31.163 193.817 31.163 193.817 80.791Z" fill="white" stroke="transparent"></path></svg></g><defs><mask></mask></defs><mask><g id="SvgjsG3656"><svg viewBox="0 0 395.52 247.2" height="247.2" width="395.52"><g><svg></svg></g><g><svg viewBox="0 0 395.52 247.2" height="247.2" width="395.52"><g transform="matrix(1,0,0,1,75.54432,86.7908330212766)"><svg viewBox="0 0 244.43135999999998 73.61833395744681" height="73.61833395744681" width="244.43135999999998"><g><svg viewBox="0 0 244.43135999999998 73.61833395744681" height="73.61833395744681" width="244.43135999999998"><g><svg viewBox="0 0 244.43135999999998 73.61833395744681" height="73.61833395744681" width="244.43135999999998"><g><svg viewBox="0 0 244.43135999999998 73.61833395744681" height="73.61833395744681" width="244.43135999999998"><g id="SvgjsG3655"><svg viewBox="0 0 244.43135999999998 73.61833395744681" height="73.61833395744681" width="244.43135999999998" id="SvgjsSvg3654"><g><svg viewBox="0 0 244.43135999999998 73.61833395744681" height="73.61833395744681" width="244.43135999999998"><g transform="matrix(1,0,0,1,0,0)"><svg width="244.43135999999998" viewBox="2.65 -31.25 105.74 31.85" height="73.61833395744681" data-palette-color="url(#a477607a-6be4-4c28-af33-7927a2702f46)"><path d="M10.15 0.6L10.15 0.6Q7.95 0.6 6.28 0.1 4.6-0.4 3.63-1.98 2.65-3.55 2.65-6.75L2.65-6.75 2.65-23.4Q2.65-26.2 3.63-27.6 4.6-29 6.33-29.48 8.05-29.95 10.2-29.95L10.2-29.95Q12.4-29.95 14.05-29.45 15.7-28.95 16.65-27.55 17.6-26.15 17.6-23.4L17.6-23.4 17.6-18.2 14.45-18.2 14.45-23.45Q14.45-25.4 13.9-26.38 13.35-27.35 12.38-27.65 11.4-27.95 10.15-27.95L10.15-27.95Q8.9-27.95 7.93-27.65 6.95-27.35 6.43-26.38 5.9-25.4 5.9-23.45L5.9-23.45 5.9-5.9Q5.9-3.9 6.43-2.93 6.95-1.95 7.93-1.65 8.9-1.35 10.15-1.35L10.15-1.35Q11.45-1.35 12.4-1.65 13.35-1.95 13.9-2.93 14.45-3.9 14.45-5.9L14.45-5.9 14.45-10.35 17.6-10.35 17.6-6.8Q17.6-3.55 16.65-1.98 15.7-0.4 14.05 0.1 12.4 0.6 10.15 0.6ZM25.65 0L22.6 0 22.6-24.75 25.65-24.75 25.65 0ZM24.15-27.8L24.15-27.8Q23.4-27.8 22.87-28.33 22.35-28.85 22.35-29.55L22.35-29.55Q22.35-30.3 22.87-30.78 23.4-31.25 24.15-31.25L24.15-31.25Q24.85-31.25 25.4-30.78 25.95-30.3 25.95-29.55L25.95-29.55Q25.95-28.85 25.4-28.33 24.85-27.8 24.15-27.8ZM34.05 0L30.95 0 30.95-24.75 33.49-24.75 33.89-22.1Q34.3-23.6 35.74-24.4 37.2-25.2 38.74-25.2L38.74-25.2Q41.39-25.2 42.62-24.28 43.84-23.35 44.2-21.88 44.55-20.4 44.55-18.65L44.55-18.65 44.55 0 41.45 0 41.45-18.2Q41.45-19.1 41.39-19.95 41.34-20.8 41.02-21.48 40.7-22.15 39.95-22.55 39.2-22.95 37.74-22.95L37.74-22.95Q36.49-22.95 35.72-22.48 34.95-22 34.57-21.38 34.2-20.75 34.05-20.2L34.05-20.2 34.05 0ZM55.84 0.45L55.84 0.45Q53.34 0.45 51.79-0.13 50.24-0.7 49.54-2.25 48.84-3.8 48.84-6.75L48.84-6.75 48.84-19.1Q48.84-22.6 50.42-23.9 51.99-25.2 55.64-25.2L55.64-25.2Q59.19-25.2 60.77-23.9 62.34-22.6 62.34-19.1L62.34-19.1 62.34-12.7 51.94-12.7 51.94-5.7Q51.94-3.3 52.69-2.38 53.44-1.45 55.74-1.45L55.74-1.45Q57.84-1.45 58.54-2.35 59.24-3.25 59.24-5.7L59.24-5.7 59.24-8.9 62.34-8.9 62.34-6.8Q62.34-3.9 61.64-2.33 60.94-0.75 59.52-0.15 58.09 0.45 55.84 0.45ZM51.94-19.2L51.94-14.3 59.24-14.3 59.24-19.2Q59.24-21.3 58.54-22.25 57.84-23.2 55.64-23.2L55.64-23.2Q53.44-23.2 52.69-22.25 51.94-21.3 51.94-19.2L51.94-19.2ZM69.89 0L66.79 0 66.79-24.75 69.39-24.75 69.74-22Q70.29-23.45 71.57-24.3 72.84-25.15 74.69-25.15L74.69-25.15Q77.59-25.15 78.77-23.95 79.94-22.75 79.99-20.45L79.99-20.45 79.44-20.4Q79.94-22.55 81.37-23.85 82.79-25.15 85.04-25.15L85.04-25.15Q88.14-25.15 89.27-23.7 90.39-22.25 90.39-19.25L90.39-19.25 90.39 0 87.29 0 87.29-18.7Q87.29-21.1 86.57-21.98 85.84-22.85 84.09-22.85L84.09-22.85Q82.44-22.85 81.34-21.88 80.24-20.9 80.14-19.45L80.14-19.45 80.14 0 77.04 0 77.04-19.1Q77.04-21.15 76.32-22 75.59-22.85 73.74-22.85L73.74-22.85Q72.04-22.85 71.17-22.05 70.29-21.25 69.89-20.15L69.89-20.15 69.89 0ZM99.79 0.35L99.79 0.35Q98.64 0.35 97.46 0.03 96.29-0.3 95.46-1.48 94.64-2.65 94.64-5.15L94.64-5.15 94.64-7.55Q94.64-10.05 96.16-11.58 97.69-13.1 100.34-14.3L100.34-14.3Q102.04-15.15 103.11-15.8 104.19-16.45 104.74-17.25 105.29-18.05 105.29-19.4L105.29-19.4 105.29-20.45Q105.29-21.65 104.79-22.3 104.29-22.95 103.46-23.2 102.64-23.45 101.74-23.45L101.74-23.45Q99.49-23.45 98.79-22.23 98.09-21 98.09-18.6L98.09-18.6 98.09-16.5 95.24-16.5 95.24-18.9Q95.24-20.75 95.74-22.18 96.24-23.6 97.64-24.43 99.04-25.25 101.74-25.25L101.74-25.25Q104.59-25.25 106.01-24.6 107.44-23.95 107.91-22.75 108.39-21.55 108.39-19.9L108.39-19.9 108.39 0 105.34 0 105.29-3.1Q104.69-1.4 103.14-0.53 101.59 0.35 99.79 0.35ZM100.94-1.75L100.94-1.75Q103.19-1.75 104.21-3.35 105.24-4.95 105.24-7.6L105.24-7.6 105.24-15.5Q104.74-14.7 103.59-14.05 102.44-13.4 101.24-12.75L101.24-12.75Q99.54-11.75 98.61-10.68 97.69-9.6 97.69-7.7L97.69-7.7 97.69-5.75Q97.69-3.95 98.19-3.1 98.69-2.25 99.44-2 100.19-1.75 100.94-1.75Z" opacity="1" transform="matrix(1,0,0,1,0,0)" fill="black" class="wordmark-text-0" id="SvgjsPath3653"></path></svg></g></svg></g></svg></g></svg></g></svg></g></svg></g></svg></g><path d="M187.178 80.791L187.178 24.524 385.329 24.524 385.329 222.676 187.178 222.676 187.178 166.409 193.817 166.409 193.817 216.037 378.69 216.037 378.69 31.163 193.817 31.163 193.817 80.791Z" fill="black" stroke="transparent"></path></svg></g><defs><mask></mask></defs></svg><rect width="395.52" height="247.2" fill="black" stroke="none" visibility="hidden"></rect></g></mask></svg><rect width="395.52" height="247.2" fill="black" stroke="none" visibility="hidden"></rect></g></mask><linearGradient x1="0" x2="1" y1="0.5" y2="0.5" id="90dd3877-1cf2-47d3-be0a-da90972b81e5"><stop stop-color="#f00b51" offset="0"></stop><stop stop-color="#730062" offset="1"></stop></linearGradient></svg><rect width="395.52" height="247.2" fill="none" stroke="none" visibility="hidden"></rect></g></svg></g></svg>